<svg width="70" height="70" viewBox="0 0 70 70" fill="none" xmlns="http://www.w3.org/2000/svg">
<path d="M35 15.1667C31.0773 15.1667 27.2428 16.3299 23.9812 18.5092C20.7196 20.6885 18.1775 23.786 16.6764 27.4101C15.1753 31.0342 14.7825 35.022 15.5478 38.8693C16.313 42.7166 18.202 46.2505 20.9757 49.0243C23.7495 51.798 27.2834 53.687 31.1307 54.4522C34.978 55.2175 38.9658 54.8247 42.5899 53.3236C46.214 51.8225 49.3115 49.2804 51.4908 46.0188C53.6701 42.7572 54.8333 38.9227 54.8333 35C54.8274 29.7417 52.7359 24.7005 49.0177 20.9823C45.2995 17.2641 40.2583 15.1726 35 15.1667ZM35 50.1667C32.0003 50.1667 29.068 49.2772 26.5739 47.6106C24.0797 45.9441 22.1358 43.5754 20.9878 40.804C19.8399 38.0327 19.5395 34.9832 20.1248 32.0411C20.71 29.0991 22.1544 26.3966 24.2755 24.2755C26.3966 22.1544 29.0991 20.71 32.0411 20.1248C34.9832 19.5395 38.0327 19.8399 40.804 20.9878C43.5754 22.1358 45.9441 24.0797 47.6106 26.5739C49.2772 29.068 50.1667 32.0003 50.1667 35C50.1621 39.0211 48.5627 42.8761 45.7194 45.7194C42.8761 48.5627 39.0211 50.1621 35 50.1667V50.1667ZM32.6667 8.16667V2.33333C32.6667 1.71449 32.9125 1.121 33.3501 0.683417C33.7877 0.245833 34.3812 0 35 0C35.6188 0 36.2123 0.245833 36.6499 0.683417C37.0875 1.121 37.3333 1.71449 37.3333 2.33333V8.16667C37.3333 8.7855 37.0875 9.379 36.6499 9.81658C36.2123 10.2542 35.6188 10.5 35 10.5C34.3812 10.5 33.7877 10.2542 33.3501 9.81658C32.9125 9.379 32.6667 8.7855 32.6667 8.16667ZM10.2512 13.5508C10.0324 13.3346 9.85848 13.0773 9.73948 12.7936C9.62048 12.51 9.55875 12.2056 9.55783 11.898C9.55691 11.5904 9.61682 11.2856 9.73412 11.0013C9.85142 10.7169 10.0238 10.4585 10.2413 10.241C10.4588 10.0235 10.7172 9.85117 11.0016 9.73389C11.286 9.61662 11.5907 9.55673 11.8983 9.55768C12.2059 9.55863 12.5103 9.62039 12.794 9.73941C13.0776 9.85844 13.3349 10.0324 13.5511 10.2512L17.6759 14.3762C17.8965 14.592 18.0722 14.8494 18.1927 15.1335C18.3132 15.4177 18.3761 15.7229 18.3778 16.0315C18.3796 16.3401 18.32 16.646 18.2027 16.9314C18.0854 17.2169 17.9127 17.4762 17.6944 17.6944C17.4762 17.9127 17.2169 18.0854 16.9314 18.2027C16.646 18.32 16.3401 18.3796 16.0315 18.3778C15.7229 18.3761 15.4177 18.3132 15.1335 18.1927C14.8494 18.0722 14.592 17.8965 14.3762 17.6759L10.2512 13.5508ZM8.16667 37.3333H2.33333C1.71449 37.3333 1.121 37.0875 0.683417 36.6499C0.245833 36.2123 0 35.6188 0 35C0 34.3812 0.245833 33.7877 0.683417 33.3501C1.121 32.9125 1.71449 32.6667 2.33333 32.6667H8.16667C8.7855 32.6667 9.379 32.9125 9.81658 33.3501C10.2542 33.7877 10.5 34.3812 10.5 35C10.5 35.6188 10.2542 36.2123 9.81658 36.6499C9.379 37.0875 8.7855 37.3333 8.16667 37.3333ZM17.6759 52.3238C17.8926 52.5405 18.0644 52.7977 18.1817 53.0808C18.299 53.3639 18.3593 53.6674 18.3593 53.9738C18.3593 54.2802 18.299 54.5836 18.1817 54.8667C18.0644 55.1498 17.8926 55.4071 17.6759 55.6238L13.5511 59.7488C13.3344 59.9655 13.0772 60.1373 12.7941 60.2546C12.511 60.3719 12.2076 60.4322 11.9012 60.4322C11.5947 60.4322 11.2913 60.3719 11.0082 60.2546C10.7251 60.1373 10.4679 59.9655 10.2512 59.7488C10.0345 59.5321 9.86266 59.2749 9.74539 58.9918C9.62813 58.7087 9.56777 58.4053 9.56777 58.0988C9.56777 57.7924 9.62813 57.489 9.74539 57.2059C9.86266 56.9228 10.0345 56.6655 10.2512 56.4489L14.3762 52.3241C14.8138 51.8866 15.4073 51.6408 16.0261 51.6408C16.6448 51.6408 17.2383 51.8866 17.6759 52.3241V52.3238ZM37.3333 61.8333V67.6667C37.3333 68.2855 37.0875 68.879 36.6499 69.3166C36.2123 69.7542 35.6188 70 35 70C34.3812 70 33.7877 69.7542 33.3501 69.3166C32.9125 68.879 32.6667 68.2855 32.6667 67.6667V61.8333C32.6667 61.2145 32.9125 60.621 33.3501 60.1834C33.7877 59.7458 34.3812 59.5 35 59.5C35.6188 59.5 36.2123 59.7458 36.6499 60.1834C37.0875 60.621 37.3333 61.2145 37.3333 61.8333ZM59.7488 56.4492C59.9676 56.6654 60.1415 56.9227 60.2605 57.2064C60.3795 57.49 60.4412 57.7944 60.4422 58.102C60.4431 58.4096 60.3832 58.7144 60.2659 58.9987C60.1486 59.2831 59.9762 59.5415 59.7587 59.759C59.5412 59.9765 59.2828 60.1488 58.9984 60.2661C58.714 60.3834 58.4093 60.4433 58.1017 60.4423C57.7941 60.4414 57.4897 60.3796 57.206 60.2606C56.9224 60.1416 56.6651 59.9676 56.4489 59.7488L52.3241 55.6238C52.1035 55.408 51.9278 55.1506 51.8073 54.8665C51.6868 54.5823 51.6239 54.2771 51.6222 53.9685C51.6204 53.6599 51.68 53.354 51.7973 53.0686C51.9146 52.7831 52.0873 52.5238 52.3056 52.3056C52.5238 52.0873 52.7831 51.9146 53.0686 51.7973C53.354 51.68 53.6599 51.6204 53.9685 51.6222C54.2771 51.6239 54.5823 51.6868 54.8665 51.8073C55.1506 51.9278 55.408 52.1035 55.6238 52.3241L59.7488 56.4492ZM70 35C70 35.6188 69.7542 36.2123 69.3166 36.6499C68.879 37.0875 68.2855 37.3333 67.6667 37.3333H61.8333C61.2145 37.3333 60.621 37.0875 60.1834 36.6499C59.7458 36.2123 59.5 35.6188 59.5 35C59.5 34.3812 59.7458 33.7877 60.1834 33.3501C60.621 32.9125 61.2145 32.6667 61.8333 32.6667H67.6667C68.2855 32.6667 68.879 32.9125 69.3166 33.3501C69.7542 33.7877 70 34.3812 70 35ZM52.3241 17.6762C52.1074 17.4595 51.9356 17.2023 51.8183 16.9192C51.701 16.6361 51.6407 16.3326 51.6407 16.0262C51.6407 15.7198 51.701 15.4164 51.8183 15.1333C51.9356 14.8502 52.1074 14.5929 52.3241 14.3762L56.4489 10.2512C56.6655 10.0345 56.9228 9.86266 57.2059 9.74539C57.489 9.62813 57.7924 9.56777 58.0988 9.56777C58.4053 9.56777 58.7087 9.62813 58.9918 9.74539C59.2749 9.86266 59.5321 10.0345 59.7488 10.2512C59.9655 10.4679 60.1373 10.7251 60.2546 11.0082C60.3719 11.2913 60.4322 11.5947 60.4322 11.9012C60.4322 12.2076 60.3719 12.511 60.2546 12.7941C60.1373 13.0772 59.9655 13.3344 59.7488 13.5511L55.6238 17.6759C55.1862 18.1134 54.5927 18.3592 53.9739 18.3592C53.3551 18.3592 52.7617 18.1134 52.3241 17.6759V17.6762Z" fill="#FFB800"/>
</svg>
