<svg width="70" height="65" viewBox="0 0 25 24" fill="none" xmlns="http://www.w3.org/2000/svg">
<path d="M12.4512 9.88447H15.4233V8.1861H13.7249V7.33691H12.0266V8.22856C11.5106 8.33332 11.052 8.62606 10.7398 9.04994C10.4275 9.47383 10.2839 9.99861 10.3368 10.5224C10.3897 11.0462 10.6354 11.5317 11.0261 11.8846C11.4168 12.2374 11.9247 12.4326 12.4512 12.432H13.3003C13.4129 12.432 13.5209 12.4768 13.6006 12.5564C13.6802 12.636 13.7249 12.744 13.7249 12.8566C13.7249 12.9692 13.6802 13.0772 13.6006 13.1568C13.5209 13.2365 13.4129 13.2812 13.3003 13.2812H10.3282V14.9796H12.0266V15.8288H13.7249V14.9371C14.2409 14.8324 14.6995 14.5396 15.0117 14.1157C15.324 13.6919 15.4676 13.1671 15.4147 12.6433C15.3618 12.1195 15.1161 11.634 14.7254 11.2811C14.3347 10.9282 13.8268 10.7331 13.3003 10.7337H12.4512C12.3385 10.7337 12.2305 10.6889 12.1509 10.6093C12.0713 10.5297 12.0266 10.4217 12.0266 10.3091C12.0266 10.1965 12.0713 10.0885 12.1509 10.0088C12.2305 9.9292 12.3385 9.88447 12.4512 9.88447Z" fill="black"/>
<path d="M11.8015 21.691C11.669 21.0895 11.1455 20.3051 10.4652 20.2934C10.4087 20.2949 10.3523 20.2987 10.2947 20.2987C6.13919 20.2987 2.76667 16.5435 2.76667 11.9132C2.76667 8.95776 4.141 6.36285 6.21561 4.87089L6.69527 5.93411C7.0029 6.07615 7.46532 6.08777 7.93871 5.94348L11.5338 1.15017L5.26373 0C4.80837 0.19638 4.48742 0.496571 4.37612 0.79114L4.96826 2.10471C1.99114 4.11385 0 7.7525 0 11.9125C0 18.077 4.36554 23.1042 9.84011 23.3684C10.6725 23.3688 12.0362 22.7662 11.7995 21.6906" fill="#25333A"/>
<path d="M13.197 1.67858C13.331 2.27971 13.8514 3.06411 14.5333 3.07535C14.5901 3.0746 14.6457 3.07085 14.7037 3.07085C18.8604 3.07085 22.2317 6.82605 22.2317 11.4563C22.2317 14.4122 20.8559 17.0067 18.7812 18.499L18.3012 17.4358C17.9959 17.2938 17.5327 17.2829 17.0593 17.4264L13.4626 22.2197L19.7366 23.3695C20.1916 23.1732 20.5114 22.8733 20.6239 22.5784L20.0321 21.2645C23.0088 19.2572 25 15.6167 25 11.4567C25 5.29212 20.6329 0.264946 15.1599 0.00073312C14.3271 -1.64204e-05 12.9622 0.602614 13.2005 1.67858" fill="#25333A"/>
</svg>
