<svg width="70" height="52" viewBox="0 0 70 52" fill="none" xmlns="http://www.w3.org/2000/svg">
<path d="M20.3435 3.22133C20.1083 2.64991 20.1094 2.00855 20.3465 1.43795C20.5836 0.86734 21.0374 0.414087 21.6083 0.177619C22.1791 -0.0588482 22.8205 -0.0592195 23.3917 0.176587C23.9628 0.412393 24.4171 0.865121 24.6549 1.43545L26.887 6.82458C27.0051 7.10781 27.0661 7.41156 27.0667 7.71843C27.0672 8.0253 27.0072 8.32926 26.8901 8.6129C26.773 8.89655 26.6011 9.15431 26.3842 9.37142C26.1673 9.58853 25.9098 9.76074 25.6263 9.87817C25.3428 9.99561 25.0389 10.056 24.732 10.0558C24.4251 10.0556 24.1213 9.99491 23.838 9.87716C23.5546 9.7594 23.2972 9.5869 23.0806 9.36954C22.864 9.15218 22.6924 8.89423 22.5756 8.61045L20.3435 3.22133ZM3.927 22.163L9.31613 24.3955C9.59936 24.5135 9.90311 24.5746 10.21 24.5751C10.5168 24.5757 10.8208 24.5156 11.1045 24.3985C11.3881 24.2814 11.6459 24.1095 11.863 23.8927C12.0801 23.6758 12.2523 23.4182 12.3697 23.1347C12.4872 22.8512 12.5475 22.5473 12.5473 22.2405C12.5472 21.9336 12.4865 21.6298 12.3687 21.3464C12.2509 21.063 12.0785 20.8057 11.8611 20.589C11.6437 20.3724 11.3858 20.2008 11.102 20.084L5.71287 17.8522C5.42911 17.731 5.12411 17.6673 4.81555 17.6647C4.50698 17.6621 4.20098 17.7208 3.91524 17.8373C3.62951 17.9538 3.36972 18.1259 3.15092 18.3435C2.93212 18.5611 2.75865 18.8199 2.64056 19.105C2.52246 19.39 2.46209 19.6957 2.46293 20.0043C2.46376 20.3129 2.5258 20.6182 2.64544 20.9026C2.76509 21.1871 2.93996 21.445 3.15994 21.6614C3.37992 21.8778 3.64064 22.0484 3.927 22.1633V22.163ZM59.7917 24.5737C60.0979 24.5736 60.4011 24.513 60.6839 24.3955L66.073 22.163C66.3594 22.0481 66.6201 21.8775 66.8401 21.6611C67.06 21.4447 67.2349 21.1868 67.3546 20.9024C67.4742 20.6179 67.5362 20.3126 67.5371 20.004C67.5379 19.6954 67.4775 19.3898 67.3594 19.1047C67.2413 18.8196 67.0679 18.5608 66.8491 18.3432C66.6303 18.1256 66.3705 17.9536 66.0848 17.837C65.799 17.7205 65.493 17.6619 65.1844 17.6644C64.8759 17.667 64.5709 17.7307 64.2871 17.8519L58.898 20.084C58.3991 20.2907 57.9874 20.6639 57.7329 21.1401C57.4784 21.6163 57.3969 22.166 57.5023 22.6956C57.6077 23.2252 57.8935 23.7018 58.3109 24.0443C58.7284 24.3867 59.2517 24.5738 59.7917 24.5737ZM44.3759 9.87337C44.659 9.99088 44.9624 10.0514 45.2689 10.0515C45.5754 10.0517 45.8789 9.99133 46.162 9.87403C46.4452 9.75673 46.7024 9.58475 46.919 9.36793C47.1357 9.15111 47.3074 8.89371 47.4244 8.61045L49.6565 3.22133C49.8917 2.64991 49.8906 2.00855 49.6535 1.43795C49.4164 0.86734 48.9626 0.414087 48.3917 0.177619C47.8209 -0.0588482 47.1795 -0.0592195 46.6083 0.176587C46.0372 0.412393 45.5829 0.865121 45.3451 1.43545L43.113 6.82458C42.9957 7.10769 42.9354 7.41112 42.9354 7.71756C42.9353 8.024 42.9957 8.32744 43.113 8.61055C43.2303 8.89366 43.4021 9.1509 43.6188 9.36757C43.8355 9.58425 44.0928 9.75612 44.3759 9.87337ZM70 37.1751C70 37.794 69.7542 38.3875 69.3166 38.825C68.879 39.2626 68.2855 39.5085 67.6667 39.5085H51.8787L51.872 39.509L51.8636 39.5085H2.33333C1.71449 39.5085 1.121 39.2626 0.683417 38.825C0.245833 38.3875 0 37.794 0 37.1751C0 36.5563 0.245833 35.9628 0.683417 35.5252C1.121 35.0876 1.71449 34.8418 2.33333 34.8418H15.3058C14.9744 32.059 15.2366 29.2375 16.075 26.5634C16.9134 23.8893 18.309 21.4232 20.1698 19.3276C22.0306 17.2321 24.3144 15.5547 26.8706 14.406C29.4269 13.2573 32.1975 12.6634 35 12.6634C37.8025 12.6634 40.5731 13.2573 43.1294 14.406C45.6856 15.5547 47.9694 17.2321 49.8302 19.3276C51.691 21.4232 53.0866 23.8893 53.925 26.5634C54.7634 29.2375 55.0256 32.059 54.6942 34.8418H67.6667C68.2855 34.8418 68.879 35.0876 69.3166 35.5252C69.7542 35.9628 70 36.5563 70 37.1751ZM20.0136 34.8418H49.9864C50.3229 32.6789 50.1872 30.4689 49.5887 28.3635C48.9902 26.258 47.9431 24.3071 46.5192 22.6446C45.0954 20.9822 43.3286 19.6476 41.3402 18.7326C39.3518 17.8176 37.1889 17.3438 35 17.3438C32.8111 17.3438 30.6482 17.8176 28.6598 18.7326C26.6714 19.6476 24.9046 20.9822 23.4807 22.6446C22.0569 24.3071 21.0098 26.258 20.4113 28.3635C19.8128 30.4689 19.6771 32.6789 20.0136 34.8418V34.8418ZM58.3333 46.5085H11.6667C11.0478 46.5085 10.4543 46.7543 10.0168 47.1919C9.57917 47.6295 9.33333 48.223 9.33333 48.8418C9.33333 49.4606 9.57917 50.0541 10.0168 50.4917C10.4543 50.9293 11.0478 51.1751 11.6667 51.1751H58.3333C58.9522 51.1751 59.5457 50.9293 59.9832 50.4917C60.4208 50.0541 60.6667 49.4606 60.6667 48.8418C60.6667 48.223 60.4208 47.6295 59.9832 47.1919C59.5457 46.7543 58.9522 46.5085 58.3333 46.5085Z" fill="#FFE600"/>
</svg>
