<svg width="70" height="70" viewBox="0 0 70 70" fill="none" xmlns="http://www.w3.org/2000/svg">
<path d="M25.4545 19.0909C25.4534 23.5457 26.6214 27.9227 28.8418 31.7847C31.0622 35.6466 34.2573 38.8582 38.1077 41.0986C41.9581 43.339 46.329 44.5296 50.7837 44.5515C55.2384 44.5735 59.6209 43.426 63.4932 41.2236C61.9627 57.3682 48.3636 70 31.8182 70C14.245 70 0 55.755 0 38.1818C0 21.6364 12.6318 8.03727 28.7764 6.50682C26.5922 10.3407 25.4472 14.6785 25.4545 19.0909ZM6.36364 38.1818C6.36364 44.9328 9.04545 51.4072 13.8191 56.1809C18.5928 60.9546 25.0672 63.6364 31.8182 63.6364C36.3156 63.6361 40.7328 62.4451 44.6208 60.1846C48.5088 57.924 51.729 54.6743 53.9541 50.7659C52.9486 50.8614 51.9305 50.9091 50.9091 50.9091C33.3359 50.9091 19.0909 36.6641 19.0909 19.0909C19.0909 18.0695 19.1386 17.0545 19.2341 16.0459C15.3257 18.271 12.076 21.4912 9.81545 25.3792C7.55486 29.2672 6.36391 33.6844 6.36364 38.1818ZM51.4309 7.28955L54.0909 7.95455V11.1364L51.4309 11.8014C50.3122 12.0811 49.2905 12.6597 48.4751 13.4751C47.6597 14.2905 47.0811 15.3122 46.8014 16.4309L46.1364 19.0909H42.9545L42.2895 16.4309C42.0098 15.3122 41.4312 14.2905 40.6158 13.4751C39.8004 12.6597 38.7787 12.0811 37.66 11.8014L35 11.1364V7.95455L37.66 7.28955C38.7781 7.00925 39.7991 6.43051 40.614 5.61512C41.4288 4.79973 42.0068 3.77833 42.2864 2.66L42.9545 0H46.1364L46.8014 2.66C47.0811 3.77872 47.6597 4.8004 48.4751 5.61582C49.2905 6.43124 50.3122 7.00976 51.4309 7.28955ZM67.34 23.1986L70 23.8636V27.0455L67.34 27.7105C66.2213 27.9902 65.1996 28.5688 64.3842 29.3842C63.5688 30.1996 62.9902 31.2213 62.7105 32.34L62.0455 35H58.8636L58.1986 32.34C57.9189 31.2213 57.3403 30.1996 56.5249 29.3842C55.7095 28.5688 54.6878 27.9902 53.5691 27.7105L50.9091 27.0455V23.8636L53.5691 23.1986C54.6878 22.9188 55.7095 22.3403 56.5249 21.5249C57.3403 20.7095 57.9189 19.6878 58.1986 18.5691L58.8636 15.9091H62.0455L62.7105 18.5691C62.9902 19.6878 63.5688 20.7095 64.3842 21.5249C65.1996 22.3403 66.2213 22.9188 67.34 23.1986Z" fill="#637BBA"/>
</svg>
