<svg width="70" height="65" viewBox="0 0 70 65" fill="none" xmlns="http://www.w3.org/2000/svg">
<path d="M36.1636 28.8564H44.3086V24.2021H39.6543V21.875H35.0001V24.3185C33.5861 24.6056 32.3293 25.4078 31.4737 26.5694C30.618 27.731 30.2244 29.1692 30.3694 30.6046C30.5144 32.0401 31.1876 33.3705 32.2583 34.3375C33.329 35.3045 34.7209 35.8392 36.1636 35.8378H38.4907C38.7993 35.8378 39.0953 35.9604 39.3135 36.1786C39.5317 36.3968 39.6543 36.6927 39.6543 37.0013C39.6543 37.3099 39.5317 37.6059 39.3135 37.8241C39.0953 38.0423 38.7993 38.1649 38.4907 38.1649H30.3458V42.8191H35.0001V45.1463H39.6543V42.7028C41.0682 42.4157 42.325 41.6135 43.1807 40.4518C44.0364 39.2902 44.4299 37.8521 44.285 36.4166C44.14 34.9812 43.4668 33.6508 42.3961 32.6838C41.3253 31.7167 39.9335 31.1821 38.4907 31.1835H36.1636C35.855 31.1835 35.5591 31.0609 35.3408 30.8427C35.1226 30.6245 35.0001 30.3285 35.0001 30.0199C35.0001 29.7114 35.1226 29.4154 35.3408 29.1972C35.5591 28.979 35.855 28.8564 36.1636 28.8564Z" fill="black"/>
<path d="M67.5 24.2952H62.45C62.3781 22.1624 61.9017 20.0683 61.0503 18.1423C60.1989 16.2163 58.9905 14.4994 57.5 13.0978V2.69947C57.5 2.19815 57.3707 1.70673 57.1266 1.28027C56.8825 0.853824 56.5333 0.50919 56.118 0.284991C55.7028 0.0607927 55.2379 -0.0341126 54.7755 0.010909C54.3131 0.0559307 53.8714 0.2391 53.5 0.539894L44.1675 8.0984H32.5C18.725 8.0984 8.8425 16.8474 7.63 29.6941H7.5C6.83696 29.6941 6.20107 29.4097 5.73223 28.9035C5.26339 28.3972 5 27.7106 5 26.9947V21.5957H0V26.9947C0.00198554 29.1419 0.7928 31.2005 2.19889 32.7187C3.60498 34.237 5.51149 35.0909 7.5 35.0931H7.675C8.03756 38.6328 9.10295 42.0464 10.7985 45.1011C12.4941 48.1557 14.7799 50.7795 17.5 52.7935V62.0878C17.5 62.8037 17.7634 63.4903 18.2322 63.9966C18.7011 64.5028 19.337 64.7872 20 64.7872H30C30.663 64.7872 31.2989 64.5028 31.7678 63.9966C32.2366 63.4903 32.5 62.8037 32.5 62.0878V56.6888H40V62.0878C40 62.8037 40.2634 63.4903 40.7322 63.9966C41.2011 64.5028 41.837 64.7872 42.5 64.7872H52.5C53.163 64.7872 53.7989 64.5028 54.2678 63.9966C54.7366 63.4903 55 62.8037 55 62.0878V53.0094C56.8059 52.085 58.3849 50.7145 59.6092 49.0089C60.8335 47.3033 61.6688 45.3104 62.0475 43.1915H67.5C68.163 43.1915 68.7989 42.9071 69.2678 42.4008C69.7366 41.8946 70 41.208 70 40.492V26.9947C70 26.2787 69.7366 25.5921 69.2678 25.0859C68.7989 24.5796 68.163 24.2952 67.5 24.2952ZM65 37.7926H57.81C57.0475 45.2242 55.75 47.2002 50 49.4408V59.3883H45V51.2899H27.5V59.3883H22.5V49.6108C19.4898 48.0644 16.9502 45.6234 15.179 42.574C13.4079 39.5245 12.4785 35.9931 12.5 32.3936C12.5 19.3417 22.545 13.4973 32.5 13.4973H45.8325L52.5 8.0984V15.5921C58.545 20.6131 57.2825 24.1926 57.545 29.6941H65V37.7926Z" fill="black"/>
</svg>
