<svg width="70" height="64" viewBox="0 0 70 64" fill="none" xmlns="http://www.w3.org/2000/svg">
<path d="M34.4115 31.8792H42.4503V27.2857H37.8567V24.9889H33.2632V27.4005C31.8677 27.6839 30.6273 28.4756 29.7828 29.6221C28.9382 30.7686 28.5498 32.1879 28.6929 33.6047C28.836 35.0214 29.5004 36.3344 30.5572 37.2889C31.6139 38.2433 32.9876 38.771 34.4115 38.7696H36.7083C37.0129 38.7696 37.305 38.8906 37.5204 39.1059C37.7357 39.3213 37.8567 39.6134 37.8567 39.9179C37.8567 40.2225 37.7357 40.5146 37.5204 40.73C37.305 40.9453 37.0129 41.0663 36.7083 41.0663H28.6696V45.6599H33.2632V47.9567H37.8567V45.5451C39.2522 45.2617 40.4926 44.4699 41.3371 43.3235C42.1817 42.177 42.5701 40.7576 42.427 39.3409C42.2839 37.9242 41.6195 36.6111 40.5627 35.6567C39.506 34.7023 38.1323 34.1746 36.7083 34.176H34.4115C34.107 34.176 33.8149 34.055 33.5995 33.8396C33.3841 33.6243 33.2632 33.3322 33.2632 33.0276C33.2632 32.723 33.3841 32.4309 33.5995 32.2156C33.8149 32.0002 34.107 31.8792 34.4115 31.8792Z" fill="black"/>
<path fill-rule="evenodd" clip-rule="evenodd" d="M62.9977 56.4676V26.6095H58.3314V56.4676C58.3314 57.0768 58.0856 57.661 57.648 58.0917C57.2105 58.5224 56.6171 58.7644 55.9983 58.7644H14.0018C13.383 58.7644 12.7896 58.5224 12.352 58.0917C11.9145 57.661 11.6687 57.0768 11.6687 56.4676V26.6095H7.00239V56.4676C7.00239 58.2951 7.73983 60.0476 9.05247 61.3398C10.3651 62.632 12.1454 63.358 14.0018 63.358H55.9983C57.8546 63.358 59.635 62.632 60.9476 61.3398C62.2602 60.0476 62.9977 58.2951 62.9977 56.4676V56.4676ZM11.6687 5.9385V22.0159L21.0012 12.8288V5.9385C21.0012 5.32936 20.7554 4.74516 20.3179 4.31443C19.8803 3.88371 19.2869 3.64172 18.6681 3.64172H14.0018C13.383 3.64172 12.7896 3.88371 12.352 4.31443C11.9145 4.74516 11.6687 5.32936 11.6687 5.9385Z" fill="black"/>
<path fill-rule="evenodd" clip-rule="evenodd" d="M38.2991 1.34493C37.424 0.483772 36.2373 0 35 0C33.7627 0 32.576 0.483772 31.7009 1.34493L0.684219 31.8737C0.246118 32.305 -3.00109e-06 32.8899 -3.00109e-06 33.4998C-3.00109e-06 34.1097 0.246118 34.6947 0.684219 35.1259C1.12232 35.5572 1.71651 35.7995 2.33608 35.7995C2.95565 35.7995 3.54984 35.5572 3.98794 35.1259L35 4.59258L66.0121 35.1259C66.4502 35.5572 67.0443 35.7995 67.6639 35.7995C68.2835 35.7995 68.8777 35.5572 69.3158 35.1259C69.7539 34.6947 70 34.1097 70 33.4998C70 32.8899 69.7539 32.305 69.3158 31.8737L38.2991 1.34493Z" fill="black"/>
</svg>
