<svg width="70" height="73" viewBox="0 0 70 73" fill="none" xmlns="http://www.w3.org/2000/svg">
<path d="M49.6751 40.0361L70 60.2166L58.0144 72.0578L37.8339 51.8773V48.556L46.3538 40.0361H49.6751V40.0361ZM52.9603 30.9025L49.4585 27.4368L32.1661 44.7653V51.8773L11.8412 72.2022L0 60.2166L20.1805 40.0361H27.2924L30.1083 37.2202L16.2455 23.3213H11.5523L1.40794 13.0686L10.8664 3.61011L20.9747 13.7184V18.4477L35.018 32.3105L44.6209 22.7076L41.1552 19.0614L45.8484 14.3321H36.2455L33.8989 11.9856L45.8484 0L48.231 2.38267V11.9856L52.9603 7.22022L64.8014 19.0614C68.7365 23.0325 68.7365 29.4946 64.8014 33.4296L57.6895 26.1733L52.9603 30.9025V30.9025Z" fill="black"/>
</svg>
